<svg xmlns="http://www.w3.org/2000/svg" xmlns:xlink="http://www.w3.org/1999/xlink" width="500" zoomAndPan="magnify" viewBox="0 0 375 374.999991" height="500" preserveAspectRatio="xMidYMid meet" version="1.0"><defs><clipPath id="b516d5f7dc"><path d="M 64 3 L 315 3 L 315 372 L 64 372 Z M 64 3 " clip-rule="nonzero"/></clipPath><clipPath id="b9cecb7b60"><path d="M 32.996094 26.859375 L 310.0625 1.214844 L 342.203125 348.480469 L 65.136719 374.125 Z M 32.996094 26.859375 " clip-rule="nonzero"/></clipPath><clipPath id="10cbdf8af9"><path d="M 32.996094 26.859375 L 310.0625 1.214844 L 342.203125 348.480469 L 65.136719 374.125 Z M 32.996094 26.859375 " clip-rule="nonzero"/></clipPath></defs><g clip-path="url(#b516d5f7dc)"><g clip-path="url(#b9cecb7b60)"><g clip-path="url(#10cbdf8af9)"><path fill="#98d647" d="M 165.15625 225.773438 C 164.878906 225.589844 164.597656 225.40625 164.320312 225.222656 C 163.488281 226.46875 162.660156 227.710938 161.832031 228.957031 C 162.140625 229.15625 162.449219 229.359375 162.753906 229.558594 C 163.558594 228.296875 164.359375 227.03125 165.15625 225.773438 Z M 247.738281 134.679688 C 247.425781 134.441406 247.117188 134.203125 246.808594 133.964844 C 246.003906 135.007812 245.203125 136.050781 244.402344 137.09375 C 244.714844 137.335938 245.03125 137.578125 245.351562 137.816406 C 246.144531 136.773438 246.941406 135.726562 247.738281 134.679688 Z M 240.03125 146.132812 C 239.691406 145.898438 239.351562 145.660156 239.011719 145.421875 C 238.191406 146.601562 237.371094 147.78125 236.546875 148.957031 C 236.902344 149.203125 237.253906 149.449219 237.605469 149.691406 C 238.417969 148.503906 239.226562 147.320312 240.03125 146.132812 Z M 233.671875 155.457031 C 233.230469 155.097656 232.785156 154.734375 232.34375 154.371094 C 231.292969 155.972656 230.246094 157.574219 229.191406 159.171875 C 229.550781 159.421875 229.90625 159.671875 230.265625 159.921875 C 231.402344 158.4375 232.539062 156.945312 233.671875 155.457031 Z M 114.335938 82.917969 C 114.789062 82.765625 115.246094 82.613281 115.695312 82.460938 C 115.308594 81.285156 114.914062 80.105469 114.527344 78.929688 C 114.089844 79.078125 113.660156 79.222656 113.230469 79.367188 C 113.597656 80.550781 113.964844 81.738281 114.335938 82.917969 Z M 149.296875 250.054688 C 153.011719 248.195312 155.195312 245.707031 154.21875 239.914062 C 152.03125 244.417969 150.664062 247.238281 149.296875 250.054688 Z M 244.503906 81.253906 C 244.941406 81.5625 245.378906 81.875 245.8125 82.179688 C 247.789062 78.90625 249.761719 75.625 251.738281 72.34375 C 251.058594 71.980469 250.378906 71.617188 249.699219 71.253906 C 247.96875 74.589844 246.234375 77.921875 244.503906 81.253906 Z M 150.054688 231.246094 C 149.476562 230.988281 148.902344 230.730469 148.328125 230.46875 C 144.871094 234.914062 142.039062 239.683594 141.582031 245.699219 C 144.40625 240.882812 147.226562 236.066406 150.054688 231.246094 Z M 156.941406 104.648438 C 161.75 120.460938 167.722656 135.558594 179.277344 147.777344 C 171.835938 133.398438 164.386719 119.027344 156.941406 104.648438 Z M 213.585938 254.945312 C 214.214844 254.574219 214.835938 254.199219 215.457031 253.828125 C 209.382812 242.417969 203.304688 231.007812 197.183594 219.507812 C 192.390625 222.269531 193.863281 225.636719 195.355469 227.96875 C 201.207031 237.109375 207.472656 245.976562 213.585938 254.945312 Z M 157.101562 188.035156 C 156.730469 179.792969 150.820312 174.757812 147.667969 168.5 C 144.378906 161.964844 140.402344 155.769531 136.722656 149.421875 C 132.902344 142.824219 129.050781 136.238281 125.265625 129.617188 C 121.835938 123.621094 118.484375 117.578125 115.097656 111.554688 C 119.515625 130.617188 148.898438 182.914062 157.101562 188.035156 Z M 231.632812 253.746094 C 231.277344 252.308594 231.25 250.660156 230.503906 249.460938 C 222.453125 236.527344 214.300781 223.65625 206.128906 210.796875 C 205.667969 210.070312 204.828125 209.585938 204.164062 208.988281 C 203.660156 209.351562 203.15625 209.714844 202.652344 210.074219 C 204.277344 212.855469 205.84375 215.679688 207.554688 218.410156 C 209.476562 221.484375 211.464844 224.519531 213.542969 227.492188 C 219.617188 236.1875 225.75 244.847656 231.859375 253.523438 C 237.578125 266.125 246.011719 276.921875 254.648438 287.597656 C 250.117188 279.140625 244.941406 271.089844 239.496094 263.234375 C 237.167969 259.871094 234.273438 256.898438 231.632812 253.746094 Z M 279.785156 77.296875 C 281.597656 75.617188 283.417969 73.945312 285.234375 72.273438 C 284.605469 71.816406 283.980469 71.367188 283.355469 70.914062 C 282.230469 73.097656 281.109375 75.28125 279.996094 77.472656 C 276.835938 81.25 273.679688 85.035156 270.523438 88.816406 C 274.984375 85.980469 279.410156 83.050781 279.785156 77.296875 Z M 209.726562 155.632812 C 212.535156 152.589844 215.671875 149.792969 218.113281 146.480469 C 238.792969 118.398438 259.179688 90.109375 280.019531 62.148438 C 286.761719 53.09375 294.492188 44.761719 301.960938 36.273438 C 303.824219 34.152344 306.449219 32.707031 308.628906 31.027344 C 312.902344 34.613281 310.96875 37.246094 309.023438 39.605469 C 305.515625 43.851562 301.75 47.878906 298.183594 52.078125 C 296.109375 54.519531 294.21875 57.121094 292.78125 60.136719 C 300.445312 57.609375 302.519531 47.117188 314.121094 46.636719 C 276.214844 96.5 243.910156 147.753906 209.542969 198.953125 C 221.957031 218.925781 234.144531 238.628906 246.425781 258.285156 C 251.28125 266.0625 257.0625 273.355469 261.097656 281.527344 C 266.601562 292.664062 270.832031 304.429688 275.605469 315.917969 C 271.300781 317.667969 271.300781 317.667969 260.238281 306.0625 C 259.109375 309.757812 258.671875 315.019531 252.804688 310.738281 C 253.664062 319.09375 262.160156 324.097656 260.628906 334.800781 C 255.351562 330.882812 251.570312 328.078125 247.785156 325.273438 C 247.398438 325.605469 247.003906 325.945312 246.617188 326.277344 C 247.800781 329.464844 248.980469 332.648438 250.714844 337.300781 C 247.941406 336.421875 245.902344 336.402344 245.207031 335.425781 C 243.445312 332.96875 242.191406 330.125 240.914062 327.351562 C 227.757812 298.835938 209.15625 273.761719 191.082031 248.363281 C 188.796875 245.148438 186.507812 241.941406 183.382812 237.554688 C 180.933594 241.464844 178.898438 244.65625 176.921875 247.886719 C 160.5 274.726562 144.183594 301.636719 127.621094 328.394531 C 119.738281 341.125 111.445312 353.609375 103.179688 366.101562 C 101.941406 367.96875 99.84375 369.273438 97.898438 371.066406 C 92.40625 365.261719 99.589844 361.269531 98.773438 355.367188 C 92.5625 360.210938 92.1875 371.09375 81.273438 370.273438 C 82.886719 366.0625 84.25 362.507812 85.671875 358.800781 C 82.234375 358.964844 79.167969 359.113281 75.613281 359.285156 C 72.835938 361.660156 72.675781 368.140625 64.585938 367.769531 C 67.433594 362.609375 69.566406 358.742188 71.710938 354.878906 C 73.542969 351.5625 74.796875 348.824219 74.113281 344.214844 C 73.351562 339.082031 76.136719 332.921875 78.699219 327.882812 C 85.484375 314.554688 92.945312 301.574219 100.199219 288.492188 C 113.652344 264.234375 127.121094 239.988281 140.644531 215.769531 C 143.773438 210.167969 146.929688 204.550781 150.46875 199.203125 C 153.035156 195.324219 152.636719 192.199219 150.328125 188.300781 C 140.839844 172.269531 131.1875 156.300781 122.53125 139.816406 C 115.449219 126.335938 109.628906 112.183594 103.40625 98.261719 C 101.429688 93.839844 101.160156 89.363281 105.390625 85.90625 C 103.765625 81.640625 102.742188 77.375 100.628906 73.742188 C 96.523438 66.660156 97.730469 61 104.027344 56.007812 C 110.089844 55.199219 108.011719 61.855469 111.410156 64.230469 C 113.050781 63.664062 114.941406 63.007812 117.683594 62.058594 C 123.53125 75.003906 129.308594 87.796875 135.082031 100.589844 C 135.726562 100.347656 136.363281 100.105469 137.003906 99.863281 C 136.710938 98.285156 136.691406 96.585938 136.066406 95.152344 C 133.03125 88.152344 129.566406 81.324219 126.792969 74.226562 C 125.527344 70.972656 125.898438 67.109375 124.796875 63.753906 C 123.019531 58.328125 120.847656 53.003906 118.445312 47.8125 C 116.914062 44.496094 114.695312 41.503906 118.09375 36.917969 C 123.210938 41.328125 123.464844 47.804688 126.050781 52.921875 C 128.800781 58.375 131.042969 64.082031 133.550781 69.65625 C 136.03125 75.160156 138.5625 80.640625 142.707031 85.488281 C 140.832031 80.472656 138.855469 75.492188 137.113281 70.425781 C 135.484375 65.6875 131.285156 61.011719 136.882812 54.292969 C 145.121094 69.945312 151.558594 85.253906 159.019531 100.039062 C 166.441406 114.734375 173.894531 129.40625 182.089844 145.597656 C 185.238281 141.246094 187.683594 138.246094 189.714844 134.992188 C 213.90625 96.320312 239.484375 58.597656 267.265625 22.417969 C 272.0625 16.171875 278.261719 10.984375 283.980469 5.484375 C 285.09375 4.40625 286.984375 4.132812 289.300781 3.164062 C 290.148438 12.085938 281.617188 16.023438 280.847656 23.269531 C 285.054688 27.371094 289.964844 28.503906 296.292969 26.089844 C 295.949219 28.3125 296.148438 29.65625 295.570312 30.410156 C 288.171875 40.113281 280.378906 49.523438 273.257812 59.425781 C 265.058594 70.832031 257.351562 82.59375 249.566406 94.292969 C 236.699219 113.644531 223.921875 133.054688 211.15625 152.472656 C 210.523438 153.4375 210.34375 154.703125 209.957031 155.835938 C 208.789062 157.332031 207.613281 158.824219 206.445312 160.316406 C 206.945312 160.613281 207.449219 160.910156 207.949219 161.207031 C 208.539062 159.347656 209.136719 157.492188 209.726562 155.632812 " fill-opacity="1" fill-rule="nonzero"/></g></g></g></svg>